<svg width="111" height="43" fill="none" xmlns="http://www.w3.org/2000/svg"><path d="M.92 42V1.68h15.988c2.725 0 4.956.55 6.692 1.652 1.755 1.083 3.052 2.473 3.892 4.172.859 1.699 1.288 3.453 1.288 5.264 0 2.221-.532 4.107-1.596 5.656-1.045 1.55-2.473 2.595-4.284 3.136v-1.4c2.539.579 4.461 1.783 5.768 3.612 1.325 1.83 1.988 3.91 1.988 6.244 0 2.39-.457 4.48-1.372 6.272-.915 1.792-2.277 3.192-4.088 4.2C23.404 41.496 21.183 42 18.532 42H.92Zm6.832-6.356h9.94c1.176 0 2.23-.233 3.164-.7.933-.485 1.661-1.157 2.184-2.016.541-.877.812-1.913.812-3.108 0-1.083-.233-2.053-.7-2.912-.467-.859-1.148-1.54-2.044-2.044-.896-.523-1.97-.784-3.22-.784H7.752v11.564Zm0-17.864h9.072c.97 0 1.839-.187 2.604-.56a4.32 4.32 0 0 0 1.82-1.652c.448-.728.672-1.624.672-2.688 0-1.4-.448-2.567-1.344-3.5-.896-.933-2.147-1.4-3.752-1.4H7.752v9.8Zm41.852 25.06c-2.24 0-4.358-.327-6.356-.98-1.978-.672-3.63-1.727-4.956-3.164-1.064-1.176-1.848-2.455-2.352-3.836a15.244 15.244 0 0 1-.812-4.48c0-1.55.224-3.052.672-4.508a11.155 11.155 0 0 1 2.128-3.864c.373-.448.775-.84 1.204-1.176a14.84 14.84 0 0 1 1.344-.952c-1.101-1.232-1.941-2.427-2.52-3.584-.56-1.157-.84-2.52-.84-4.088 0-2.352.635-4.461 1.904-6.328 1.27-1.867 2.996-3.21 5.18-4.032a13.34 13.34 0 0 1 2.884-.728c.99-.13 1.95-.196 2.884-.196 1.755 0 3.444.27 5.068.812 1.624.523 3.005 1.381 4.144 2.576A9.686 9.686 0 0 1 61 6.664c.486.859.85 1.745 1.092 2.66l-6.664 1.428a4.808 4.808 0 0 0-1.372-2.156 4.057 4.057 0 0 0-1.988-1.064 9.546 9.546 0 0 0-2.268-.28c-1.194 0-2.25.215-3.164.644-.915.43-1.596 1.008-2.044 1.736-.43.728-.644 1.615-.644 2.66 0 .933.168 1.68.504 2.24.355.56.784 1.13 1.288 1.708.336.373.747.784 1.232 1.232.486.448.99.915 1.512 1.4l10.136 9.38c.019-.373.028-.775.028-1.204V20.86h5.936v7.308c0 1.008-.028 1.988-.084 2.94-.056.933-.168 1.708-.336 2.324l5.012 4.592-4.34 4.62-3.892-3.696a12.8 12.8 0 0 1-3.136 2.184c-1.139.56-2.286.961-3.444 1.204-.84.205-1.642.336-2.408.392-.765.075-1.55.112-2.352.112Zm.28-6.412c.579 0 1.12-.028 1.624-.084a6.83 6.83 0 0 0 1.512-.336c.69-.205 1.279-.448 1.764-.728.504-.28.943-.57 1.316-.868l-10.668-9.8c-.504.187-.961.43-1.372.728-.392.28-.728.597-1.008.952a5.508 5.508 0 0 0-.84 1.652 7.03 7.03 0 0 0-.28 2.044c.019.859.159 1.624.42 2.296a6.653 6.653 0 0 0 1.036 1.764c.672.859 1.634 1.475 2.884 1.848 1.25.355 2.455.532 3.612.532Zm40.877 6.412c-4.032 0-7.485-.877-10.36-2.632-2.875-1.773-5.087-4.237-6.636-7.392-1.53-3.155-2.296-6.813-2.296-10.976 0-4.163.765-7.821 2.296-10.976 1.55-3.155 3.761-5.61 6.636-7.364C83.276 1.727 86.73.84 90.761.84c4.032 0 7.485.887 10.36 2.66 2.893 1.755 5.105 4.21 6.636 7.364 1.549 3.155 2.324 6.813 2.324 10.976 0 4.163-.775 7.821-2.324 10.976-1.531 3.155-3.743 5.619-6.636 7.392-2.875 1.755-6.328 2.632-10.36 2.632Zm0-6.356c2.707.019 4.956-.579 6.748-1.792 1.81-1.213 3.164-2.921 4.06-5.124.915-2.203 1.372-4.779 1.372-7.728 0-2.95-.457-5.507-1.372-7.672-.896-2.184-2.25-3.883-4.06-5.096-1.792-1.213-4.041-1.839-6.748-1.876-2.707-.019-4.956.579-6.748 1.792-1.792 1.213-3.145 2.921-4.06 5.124-.896 2.203-1.344 4.779-1.344 7.728 0 2.95.448 5.516 1.344 7.7.896 2.165 2.24 3.855 4.032 5.068 1.81 1.213 4.07 1.839 6.776 1.876Z" fill="#0E0C1E"/></svg>