<svg width="111" height="43" viewBox="0 0 111 43" fill="none" xmlns="http://www.w3.org/2000/svg">
<path d="M0.92 42V1.68H16.908C19.6333 1.68 21.864 2.23067 23.6 3.332C25.3547 4.41466 26.652 5.80533 27.492 7.504C28.3507 9.20267 28.78 10.9573 28.78 12.768C28.78 14.9893 28.248 16.8747 27.184 18.424C26.1387 19.9733 24.7107 21.0187 22.9 21.56V20.16C25.4387 20.7387 27.3613 21.9427 28.668 23.772C29.9933 25.6013 30.656 27.6827 30.656 30.016C30.656 32.4053 30.1987 34.496 29.284 36.288C28.3693 38.08 27.0067 39.48 25.196 40.488C23.404 41.496 21.1827 42 18.532 42H0.92ZM7.752 35.644H17.692C18.868 35.644 19.9227 35.4107 20.856 34.944C21.7893 34.4587 22.5173 33.7867 23.04 32.928C23.5813 32.0507 23.852 31.0147 23.852 29.82C23.852 28.7373 23.6187 27.7667 23.152 26.908C22.6853 26.0493 22.004 25.368 21.108 24.864C20.212 24.3413 19.1387 24.08 17.888 24.08H7.752V35.644ZM7.752 17.78H16.824C17.7947 17.78 18.6627 17.5933 19.428 17.22C20.1933 16.8467 20.8 16.296 21.248 15.568C21.696 14.84 21.92 13.944 21.92 12.88C21.92 11.48 21.472 10.3133 20.576 9.38C19.68 8.44667 18.4293 7.98 16.824 7.98H7.752V17.78ZM49.6041 42.84C47.3641 42.84 45.2455 42.5133 43.2481 41.86C41.2695 41.188 39.6175 40.1333 38.2921 38.696C37.2281 37.52 36.4441 36.2413 35.9401 34.86C35.4548 33.46 35.1841 31.9667 35.1281 30.38C35.1281 28.8307 35.3521 27.328 35.8001 25.872C36.2668 24.416 36.9761 23.128 37.9281 22.008C38.3015 21.56 38.7028 21.168 39.1321 20.832C39.5801 20.4773 40.0281 20.16 40.4761 19.88C39.3748 18.648 38.5348 17.4533 37.9561 16.296C37.3961 15.1387 37.1161 13.776 37.1161 12.208C37.1161 9.856 37.7508 7.74666 39.0201 5.88C40.2895 4.01333 42.0161 2.66933 44.2001 1.848C45.1521 1.49333 46.1135 1.25067 47.0841 1.12C48.0735 0.989331 49.0348 0.923996 49.9681 0.923996C51.7228 0.923996 53.4121 1.19466 55.0361 1.736C56.6601 2.25866 58.0415 3.11733 59.1801 4.312C59.9081 5.00267 60.5148 5.78667 61.0001 6.664C61.4855 7.52266 61.8495 8.40933 62.0921 9.324L55.4281 10.752C55.1668 9.912 54.7095 9.19333 54.0561 8.596C53.4961 8.05467 52.8335 7.7 52.0681 7.532C51.3028 7.34533 50.5468 7.252 49.8001 7.252C48.6055 7.252 47.5508 7.46667 46.6361 7.896C45.7215 8.32533 45.0401 8.904 44.5921 9.632C44.1628 10.36 43.9481 11.2467 43.9481 12.292C43.9481 13.2253 44.1161 13.972 44.4521 14.532C44.8068 15.092 45.2361 15.6613 45.7401 16.24C46.0761 16.6133 46.4868 17.024 46.9721 17.472C47.4575 17.92 47.9615 18.3867 48.4841 18.872L58.6201 28.252C58.6388 27.8787 58.6481 27.4773 58.6481 27.048C58.6481 26.6 58.6481 26.18 58.6481 25.788V20.86H64.5841V28.168C64.5841 29.176 64.5561 30.156 64.5001 31.108C64.4441 32.0413 64.3321 32.816 64.1641 33.432L69.1761 38.024L64.8361 42.644L60.9441 38.948C59.9921 39.844 58.9468 40.572 57.8081 41.132C56.6695 41.692 55.5215 42.0933 54.3641 42.336C53.5241 42.5413 52.7215 42.672 51.9561 42.728C51.1908 42.8027 50.4068 42.84 49.6041 42.84ZM49.8841 36.428C50.4628 36.428 51.0041 36.4 51.5081 36.344C52.0308 36.288 52.5348 36.176 53.0201 36.008C53.7108 35.8027 54.2988 35.56 54.7841 35.28C55.2881 35 55.7268 34.7107 56.1001 34.412L45.4321 24.612C44.9281 24.7987 44.4708 25.0413 44.0601 25.34C43.6681 25.62 43.3321 25.9373 43.0521 26.292C42.6975 26.7587 42.4175 27.3093 42.2121 27.944C42.0255 28.56 41.9321 29.2413 41.9321 29.988C41.9508 30.8467 42.0908 31.612 42.3521 32.284C42.6135 32.9373 42.9588 33.5253 43.3881 34.048C44.0601 34.9067 45.0215 35.5227 46.2721 35.896C47.5228 36.2507 48.7268 36.428 49.8841 36.428ZM90.7611 42.84C86.7291 42.84 83.2757 41.9627 80.4011 40.208C77.5264 38.4347 75.3144 35.9707 73.7651 32.816C72.2344 29.6613 71.4691 26.0027 71.4691 21.84C71.4691 17.6773 72.2344 14.0187 73.7651 10.864C75.3144 7.70933 77.5264 5.25467 80.4011 3.5C83.2757 1.72667 86.7291 0.839999 90.7611 0.839999C94.7931 0.839999 98.2464 1.72667 101.121 3.5C104.014 5.25467 106.226 7.70933 107.757 10.864C109.306 14.0187 110.081 17.6773 110.081 21.84C110.081 26.0027 109.306 29.6613 107.757 32.816C106.226 35.9707 104.014 38.4347 101.121 40.208C98.2464 41.9627 94.7931 42.84 90.7611 42.84ZM90.7611 36.484C93.4677 36.5027 95.7171 35.9053 97.5091 34.692C99.3197 33.4787 100.673 31.7707 101.569 29.568C102.484 27.3653 102.941 24.7893 102.941 21.84C102.941 18.8907 102.484 16.3333 101.569 14.168C100.673 11.984 99.3197 10.2853 97.5091 9.072C95.7171 7.85867 93.4677 7.23333 90.7611 7.196C88.0544 7.17733 85.8051 7.77467 84.0131 8.988C82.2211 10.2013 80.8677 11.9093 79.9531 14.112C79.0571 16.3147 78.6091 18.8907 78.6091 21.84C78.6091 24.7893 79.0571 27.356 79.9531 29.54C80.8491 31.7053 82.1931 33.3947 83.9851 34.608C85.7957 35.8213 88.0544 36.4467 90.7611 36.484Z" fill="#0E0C1E"/>
</svg>
